<svg width="96" height="96" viewBox="0 0 96 96" fill="none" xmlns="http://www.w3.org/2000/svg">
<g clip-path="url(#clip0)">
<path d="M85.16 75.0399C88.16 73.3099 90 70.1099 90 66.6499V29.3399C90 25.8799 88.15 22.6799 85.16 20.9499L52.84 2.29994C49.84 0.569941 46.15 0.569941 43.16 2.29994L10.84 20.9599C7.85 22.6899 6 25.8799 6 29.3399V66.6599C6 70.1199 7.85 73.3199 10.84 75.0499L43.16 93.6999C46.16 95.4299 49.85 95.4299 52.84 93.6999L85.16 75.0399Z" fill="#595CA8"/>
<path d="M58.63 29.3101C60.06 27.4201 61.88 24.1201 61.74 19.6101C61.53 12.2701 57.16 11.1601 54.67 12.3701C52.61 13.3701 56.06 22.4801 54.02 27.0601C52.58 26.4801 51.01 26.1501 49.37 26.1501C47.88 26.1501 46.47 26.4201 45.15 26.9001C45.14 26.9101 45.12 26.9101 45.11 26.9201C44.52 27.1401 43.95 27.3801 43.41 27.6801C38.1 30.1001 31.81 33.4601 25.49 34.9101C24.24 35.2001 23.21 36.2701 23.21 37.5801C23.21 45.1701 25.95 49.8901 43.92 51.1801C40.98 57.2601 36.72 67.6801 40.44 70.6601C40.47 70.6901 40.51 70.7101 40.54 70.7301C38.18 75.4201 34.23 84.2101 35.05 89.0301L42 93.0301C45.71 95.1701 50.29 95.1701 54 93.0301L64.16 87.1601V38.8501C64.16 34.7801 61.93 31.2201 58.63 29.3101Z" fill="#FFD450"/>
<path d="M43.3999 27.67C43.9399 27.37 44.5099 27.13 45.0999 26.91C45.1099 26.9 45.1299 26.9 45.1399 26.89C46.1199 26.53 47.1599 26.29 48.2399 26.19C46.8899 21.42 49.8299 13.3 47.8899 12.36C45.3999 11.15 41.0299 12.26 40.8199 19.6C40.7199 23.13 41.8099 25.91 42.9699 27.86C43.1099 27.8 43.2599 27.73 43.3999 27.67Z" fill="#FFD450"/>
<path fill-rule="evenodd" clip-rule="evenodd" d="M64.1602 45.795C64.5053 45.795 64.7852 46.0749 64.7852 46.42V54.73C64.7852 55.0752 64.5053 55.355 64.1602 55.355C63.815 55.355 63.5352 55.0752 63.5352 54.73V46.42C63.5352 46.0749 63.815 45.795 64.1602 45.795Z" fill="#231F20"/>
<path fill-rule="evenodd" clip-rule="evenodd" d="M64.16 57.525C64.5052 57.525 64.785 57.8048 64.785 58.15V87.16C64.785 87.3832 64.666 87.5895 64.4727 87.7012L54.3127 93.5712L54.3123 93.5714C50.409 95.8229 45.591 95.8229 41.6877 93.5714L34.728 89.5616C34.5666 89.4686 34.4551 89.3085 34.4239 89.1248C33.9846 86.5427 34.8213 83.0048 36.0023 79.6156C37.1225 76.4011 38.5938 73.2092 39.7508 70.8808C38.7018 69.8461 38.3431 68.2913 38.3563 66.6026C38.3707 64.7527 38.83 62.5965 39.492 60.4183C39.5924 60.088 39.9415 59.9017 40.2718 60.002C40.602 60.1024 40.7884 60.4515 40.688 60.7818C40.0401 62.9136 39.6193 64.9373 39.6062 66.6124C39.5931 68.303 39.9936 69.4965 40.8219 70.1631C40.8256 70.1661 40.8293 70.1691 40.8329 70.1722L40.85 70.1828C40.8573 70.1873 40.8665 70.1932 40.8767 70.2C41.1395 70.3752 41.2303 70.7189 41.0883 71.001C39.914 73.3346 38.35 76.6773 37.1827 80.0269C36.053 83.269 35.3371 86.4043 35.6142 88.6295L42.312 92.4885L42.3123 92.4886C45.8289 94.5171 50.1707 94.5172 53.6873 92.4888M53.6877 92.4886L63.535 86.7993V58.15C63.535 57.8048 63.8148 57.525 64.16 57.525M40.872 70.2081C40.8718 70.208 40.8717 70.2078 40.8716 70.2077Z" fill="#231F20"/>
<path fill-rule="evenodd" clip-rule="evenodd" d="M59.4284 12.279C61.0696 13.4768 62.2564 15.8091 62.3647 19.5916C62.4974 23.8734 60.9324 27.1079 59.5296 29.1331C62.6793 31.2178 64.785 34.7917 64.785 38.8501V43.0001C64.785 43.3452 64.5051 43.6251 64.16 43.6251C63.8148 43.6251 63.535 43.3452 63.535 43.0001V38.8501C63.535 35.0151 61.4244 31.6551 58.3162 29.8506C58.1614 29.7607 58.0525 29.6088 58.0172 29.4333C57.9819 29.2579 58.0236 29.0757 58.1315 28.933C59.5065 27.1158 61.2495 23.9526 61.1153 19.6294L61.1152 19.6279C61.0135 16.0708 59.9103 14.1782 58.6915 13.2886C57.4679 12.3955 56.0029 12.4172 54.9431 12.9322L54.9429 12.9323C54.9032 12.9516 54.8125 13.0164 54.7326 13.2812C54.6521 13.5479 54.6103 13.9319 54.6112 14.4421C54.6129 15.3792 54.7545 16.5768 54.9149 17.9333C54.9292 18.0542 54.9437 18.1762 54.9582 18.2995C55.1329 19.785 55.313 21.4173 55.3175 22.9714C55.3219 24.5183 55.1539 26.0503 54.5909 27.3144C54.454 27.6216 54.0985 27.7655 53.7865 27.6398C52.4164 27.088 50.9255 26.7751 49.37 26.7751C47.9725 26.7751 46.6486 27.0253 45.4052 27.4724C45.4032 27.4733 45.4014 27.4741 45.3995 27.475C45.394 27.4775 45.3887 27.4798 45.3837 27.4819C45.3656 27.4907 45.3472 27.4986 45.3283 27.5057C44.7528 27.7203 44.2151 27.9477 43.7135 28.2264C43.699 28.2344 43.6842 28.2419 43.6692 28.2488C42.6338 28.7206 41.5548 29.2317 40.4404 29.7595C35.8984 31.9108 30.7704 34.3397 25.6303 35.5191C24.6072 35.7569 23.835 36.6157 23.835 37.5801C23.835 41.3026 24.5058 44.1366 27.211 46.25C29.9841 48.4165 34.9947 49.9127 43.9647 50.5567C44.1712 50.5715 44.357 50.6876 44.4608 50.8668C44.5646 51.0459 44.5729 51.2649 44.483 51.4514C43.5578 53.3713 42.5066 55.7024 41.6158 58.0979C41.4954 58.4214 41.1356 58.5862 40.8121 58.4659C40.4886 58.3455 40.3238 57.9857 40.4442 57.6622C41.228 55.5545 42.1306 53.5029 42.9637 51.7341C34.512 51.053 29.4251 49.566 26.4414 47.2351C23.2841 44.7685 22.585 41.4475 22.585 37.5801C22.585 35.9247 23.8723 34.6438 25.3487 34.3012L25.3502 34.3009C30.3435 33.1553 35.3104 30.804 39.845 28.6574C40.9681 28.1257 42.0646 27.6066 43.1285 27.1215C43.6868 26.8133 44.267 26.5687 44.8497 26.3501C44.8534 26.3483 44.857 26.3467 44.8604 26.3451C44.866 26.3426 44.8713 26.3403 44.8764 26.3381C44.8959 26.3286 44.9159 26.3201 44.9364 26.3127C46.3209 25.8092 47.8031 25.5251 49.37 25.5251C50.8703 25.5251 52.3135 25.7878 53.6577 26.2566C53.9575 25.3244 54.071 24.2035 54.0675 22.975C54.0632 21.5015 53.892 19.9351 53.7167 18.4456C53.7016 18.3168 53.6864 18.1883 53.6712 18.0604C53.5137 16.7307 53.363 15.4586 53.3612 14.4443C53.3602 13.8882 53.4029 13.3607 53.5359 12.9199C53.6696 12.4772 53.9217 12.0385 54.397 11.8078C55.8272 11.1129 57.7921 11.0846 59.4284 12.279Z" fill="#231F20"/>
<path fill-rule="evenodd" clip-rule="evenodd" d="M43.8121 11.8421C45.2926 11.0867 46.9267 11.1899 48.162 11.7874L48.1624 11.7876C48.6094 12.0042 48.86 12.4057 48.999 12.8196C49.1365 13.2289 49.1884 13.7151 49.198 14.225C49.2173 15.2447 49.0671 16.544 48.9068 17.902C48.9015 17.9469 48.8962 17.9918 48.8909 18.0368C48.7328 19.3753 48.5656 20.7918 48.513 22.1629C48.4585 23.5837 48.5299 24.9098 48.8412 26.0098C48.8918 26.1886 48.8603 26.3805 48.7552 26.5336C48.6502 26.6868 48.4824 26.7853 48.2975 26.8024C47.2875 26.8959 46.3145 27.1184 45.3965 27.4517C45.3941 27.4528 45.3917 27.4539 45.3894 27.455C45.3839 27.4575 45.3786 27.4598 45.3736 27.4619C45.3555 27.4707 45.3371 27.4786 45.3182 27.4857C44.7427 27.7003 44.205 27.9277 43.7034 28.2064C43.6848 28.2167 43.6656 28.2261 43.6461 28.2345C43.5184 28.2892 43.3795 28.354 43.2494 28.4191C42.9565 28.5655 42.6002 28.461 42.4327 28.1796C41.2268 26.1523 40.091 23.2565 40.1951 19.5824C40.2049 19.2373 40.4925 18.9655 40.8376 18.9753C41.1826 18.9851 41.4544 19.2727 41.4446 19.6177C41.3569 22.7148 42.2231 25.208 43.2241 27.044C43.7498 26.7626 44.2936 26.5349 44.8396 26.3301C44.8434 26.3283 44.8469 26.3267 44.8503 26.3251C44.8558 26.3226 44.8611 26.3203 44.8662 26.3182C44.8851 26.3089 44.9045 26.3007 44.9244 26.2934C45.7374 25.9947 46.5897 25.7747 47.4708 25.6435C47.2547 24.537 47.2176 23.3242 47.2639 22.115C47.3184 20.6932 47.4909 19.233 47.6475 17.9071C47.6535 17.8564 47.6595 17.8059 47.6654 17.7556C47.8289 16.3699 47.9656 15.1647 47.9483 14.2486C47.9396 13.7905 47.8924 13.4508 47.814 13.2175C47.7372 12.9888 47.6554 12.9309 47.6173 12.9125L47.8899 12.3501L47.6177 12.9127C46.703 12.4702 45.4821 12.3934 44.3801 12.9555C43.2939 13.5097 42.2314 14.7344 41.731 17.0709C41.6587 17.4084 41.3265 17.6235 40.989 17.5512C40.6515 17.4789 40.4364 17.1467 40.5087 16.8092C41.0684 14.1957 42.3158 12.6054 43.8121 11.8421Z" fill="#231F20"/>
<path fill-rule="evenodd" clip-rule="evenodd" d="M22.69 38.0334C22.8538 37.7296 23.2329 37.616 23.5367 37.7798L23.2402 38.33C23.5367 37.7798 23.5369 37.7799 23.5367 37.7798L23.5395 37.7813L23.5579 37.7908C23.5753 37.7997 23.6026 37.8135 23.639 37.8312C23.712 37.8667 23.8213 37.9177 23.9604 37.9767C24.2395 38.095 24.6338 38.2433 25.0925 38.3626C26.0282 38.6059 27.1404 38.7054 28.0934 38.2957C28.4105 38.1594 28.7781 38.306 28.9144 38.6231C29.0507 38.9403 28.9041 39.3078 28.587 39.4442C27.26 40.0145 25.8222 39.844 24.7778 39.5723C24.2466 39.4341 23.7934 39.2636 23.4725 39.1276C23.3116 39.0593 23.1827 38.9993 23.0926 38.9555C23.0475 38.9335 23.0119 38.9156 22.9869 38.9028L22.9571 38.8873L22.9483 38.8826L22.9455 38.8811L22.9444 38.8805C22.9442 38.8804 22.9436 38.8801 23.2402 38.33L22.9444 38.8805C22.6406 38.7168 22.5262 38.3373 22.69 38.0334ZM23.5367 37.7798C23.5366 37.7797 23.5365 37.7797 23.5367 37.7798Z" fill="#231F20"/>
<path fill-rule="evenodd" clip-rule="evenodd" d="M38.2893 38.5613C36.8902 37.3427 37.8565 35.115 39.6198 35.115H43.3498C45.1093 35.115 46.0846 37.3533 44.6774 38.5638L44.6656 38.5737L44.6594 38.5787C44.5536 38.6653 44.4319 38.7649 44.3074 38.8554C44.0283 39.0585 43.6374 38.9968 43.4343 38.7176C43.2313 38.4384 43.293 38.0476 43.5722 37.8445C43.6633 37.7782 43.7573 37.7017 43.8671 37.612C44.3131 37.2205 44.0478 36.365 43.3498 36.365H39.6198C38.9233 36.365 38.6496 37.2166 39.1098 37.6182C39.751 38.1737 40.5769 38.505 41.4798 38.505C41.7197 38.505 41.9371 38.4872 42.1372 38.4471C42.4757 38.3794 42.805 38.5989 42.8727 38.9374C42.9404 39.2759 42.7208 39.6052 42.3824 39.6729C42.0825 39.7328 41.78 39.755 41.4798 39.755C40.263 39.755 39.1492 39.3065 38.2905 38.5623L38.2893 38.5613Z" fill="#231F20"/>
<path fill-rule="evenodd" clip-rule="evenodd" d="M51.8214 47.811C52.086 48.0327 52.1208 48.4269 51.8991 48.6914C50.1971 50.723 47.7929 51.2541 46.5697 51.3912C46.2266 51.4296 45.9174 51.1827 45.8789 50.8397C45.8405 50.4966 46.0874 50.1874 46.4304 50.1489C47.5272 50.026 49.5431 49.5572 50.941 47.8887C51.1627 47.6241 51.5569 47.5893 51.8214 47.811Z" fill="#231F20"/>
<path fill-rule="evenodd" clip-rule="evenodd" d="M36.5263 43.3437C36.7562 43.6012 36.7339 43.9963 36.4764 44.2262C34.3365 46.1372 31.8056 46.8204 29.8397 47.0327C28.8541 47.1391 27.9999 47.1283 27.3902 47.0909C27.085 47.0721 26.8399 47.0466 26.669 47.0254C26.5835 47.0147 26.5165 47.0052 26.4696 46.9981C26.4462 46.9945 26.4278 46.9916 26.4147 46.9894L26.3989 46.9868L26.3941 46.986L26.3924 46.9857C26.3921 46.9856 26.3912 46.9855 26.5001 46.37L26.3912 46.9855C26.0513 46.9253 25.8245 46.601 25.8847 46.2611C25.9447 45.9215 26.2686 45.6948 26.6082 45.7544C26.6083 45.7544 26.6082 45.7544 26.6082 45.7544L26.6093 45.7546L26.6176 45.756C26.6257 45.7573 26.6389 45.7595 26.657 45.7622C26.6933 45.7677 26.7492 45.7757 26.823 45.7849C26.9708 45.8032 27.1899 45.8262 27.4669 45.8432C28.0216 45.8773 28.8036 45.8872 29.7055 45.7899C31.5147 45.5946 33.7637 44.9729 35.6438 43.2938C35.9013 43.0639 36.2964 43.0863 36.5263 43.3437Z" fill="#231F20"/>
<path d="M48 96C46.2 96 44.3 95.5 42.7 94.6L10.3 75.9C7 74 5 70.5 5 66.7V29.3C5 25.5 7 22 10.3 20L42.7 1.39998C46 -0.500024 50.1 -0.500024 53.4 1.39998L85.7 20.1C89 22 91 25.5 91 29.3V66.6C91 70.4 89 73.9 85.7 75.9L53.3 94.6C51.7 95.5 49.8 96 48 96ZM48 1.99998C46.5 1.99998 45 2.39998 43.7 3.19998L11.3 21.8C8.7 23.4 7 26.2 7 29.3V66.6C7 69.7 8.7 72.6 11.3 74.1L43.6 92.8C46.3 94.3 49.6 94.3 52.3 92.8L84.6 74.1C87.3 72.6 88.9 69.7 88.9 66.6V29.3C88.9 26.2 87.2 23.3 84.6 21.8L52.3 3.19998C51 2.39998 49.5 1.99998 48 1.99998Z" fill="#231F20"/>
</g>
<defs>
<clipPath id="clip0">
<rect width="96" height="96" fill="white"/>
</clipPath>
</defs>
</svg>
